<svg width="19" height="17" viewBox="0 0 19 17" fill="none" xmlns="http://www.w3.org/2000/svg">
<path d="M18.4062 5.97537H16.6137C16.6927 5.97537 16.739 6.27592 16.739 6.47331C16.739 6.81269 16.6155 7.10177 16.3911 7.34246L15.7249 8.04224C15.5004 8.28293 15.2024 8.4071 14.8853 8.4071C14.5682 8.4071 14.2702 8.3326 14.0458 8.09191L12.0187 5.97537H6.38756L4.3605 8.08809C4.13606 8.32942 3.838 8.43066 3.52094 8.43066C3.20387 8.43066 2.90581 8.28357 2.68137 8.04288L2.01519 7.32018C1.79075 7.07949 1.66725 6.81778 1.66725 6.47776C1.66725 6.27974 1.71356 5.97601 1.79253 5.97601H0.59375C0.265406 5.97601 0 6.13838 0 6.4905V7.76399C0 8.11611 0.265406 8.52299 0.59375 8.52299H1.1875L2.73481 15.715C2.87137 16.3505 3.39922 16.8007 4.00781 16.8007H14.3984C15.0064 16.8007 15.5343 16.3505 15.6714 15.715L17.2188 8.52235H18.4062C18.7346 8.52235 19 8.11483 19 7.76335V6.48986C19 6.13774 18.7346 5.97537 18.4062 5.97537ZM4.75 12.8573H3.5625V11.5838H4.75V12.8573ZM4.75 10.3103H3.5625V9.03684H4.75V10.3103ZM7.125 15.4043H5.9375V14.1308H7.125V15.4043ZM7.125 12.8573H5.9375V11.5838H7.125V12.8573ZM7.125 10.3103H5.9375V9.03684H7.125V10.3103ZM9.5 15.4043H8.3125V14.1308H9.5V15.4043ZM9.5 12.8573H8.3125V11.5838H9.5V12.8573ZM9.5 10.3103H8.3125V9.03684H9.5V10.3103ZM11.875 15.4043H10.6875V14.1308H11.875V15.4043ZM11.875 12.8573H10.6875V11.5838H11.875V12.8573ZM11.875 10.3103H10.6875V9.03684H11.875V10.3103ZM14.25 12.8573H13.0625V11.5838H14.25V12.8573ZM14.25 10.3103H13.0625V9.03684H14.25V10.3103Z" fill="#FFDB00"/>
<path d="M3.10116 7.57678C3.21219 7.69649 3.363 7.76335 3.52094 7.76335C3.67888 7.76335 3.82969 7.69649 3.94072 7.57678L9.20313 1.93268L14.4655 7.57678C14.5772 7.69649 14.728 7.76335 14.8853 7.76335C15.0427 7.76335 15.1941 7.69649 15.3051 7.57678L15.9713 6.86235C16.0829 6.74264 16.1453 6.58155 16.1453 6.41217C16.1453 6.2428 16.0829 6.08107 15.9713 5.962L10.5854 0.186725C10.3532 -0.0622418 9.97797 -0.0622418 9.74581 0.186725L9.20313 0.76871L8.66044 0.186725C8.42828 -0.0622418 8.05303 -0.0622418 7.82088 0.186725L2.43497 5.962C2.32335 6.08107 2.261 6.2428 2.261 6.41217C2.261 6.58155 2.32335 6.74328 2.43497 6.86235L3.10116 7.57678ZM14.8438 5.85311C15.1721 5.85311 15.4375 6.13774 15.4375 6.48986C15.4375 6.84198 15.1721 7.1266 14.8438 7.1266C14.5154 7.1266 14.25 6.84198 14.25 6.48986C14.25 6.13774 14.5154 5.85311 14.8438 5.85311ZM3.5625 5.85311C3.89085 5.85311 4.15625 6.13774 4.15625 6.48986C4.15625 6.84198 3.89085 7.1266 3.5625 7.1266C3.23416 7.1266 2.96875 6.84198 2.96875 6.48986C2.96875 6.13774 3.23416 5.85311 3.5625 5.85311Z" fill="#FFDB00"/>
</svg>
