<?xml version="1.0" encoding="utf-8"?>
<!-- Generator: Adobe Illustrator 23.1.1, SVG Export Plug-In . SVG Version: 6.00 Build 0)  -->
<svg version="1.1"
	 id="svg855" xmlns:cc="http://creativecommons.org/ns#" xmlns:dc="http://purl.org/dc/elements/1.1/" xmlns:inkscape="http://www.inkscape.org/namespaces/inkscape" xmlns:rdf="http://www.w3.org/1999/02/22-rdf-syntax-ns#" xmlns:sodipodi="http://sodipodi.sourceforge.net/DTD/sodipodi-0.dtd" xmlns:svg="http://www.w3.org/2000/svg"
	 xmlns="http://www.w3.org/2000/svg" xmlns:xlink="http://www.w3.org/1999/xlink" x="0px" y="0px" viewBox="0 0 2317.1 941.05"
	 style="enable-background:new 0 0 2317.1 941.05;" xml:space="preserve">
<style type="text/css">
	.st0{fill:#0058A3;}
	.st1{fill:#FFDB00;}
</style>
<sodipodi:namedview  bordercolor="#666666" borderopacity="1.0" id="base" inkscape:current-layer="layer1" inkscape:cx="400" inkscape:cy="560" inkscape:document-units="mm" inkscape:pageopacity="0.0" inkscape:pageshadow="2" inkscape:window-height="962" inkscape:window-maximized="1" inkscape:window-width="1280" inkscape:window-x="-8" inkscape:window-y="-8" inkscape:zoom="0.175" pagecolor="#ffffff" showgrid="false" units="in">
	</sodipodi:namedview>
<g id="layer1" transform="translate(0,43)" inkscape:groupmode="layer" inkscape:label="Capa 1">
	<path id="path836" inkscape:connector-curvature="0" class="st0" d="M2316.77,898.05H0V-43h2317.1v941.05H2316.77z"/>
	<path id="path838" inkscape:connector-curvature="0" class="st1" d="M45.16,427.53c0,227.46,466.54,416.4,1113.39,416.4
		s1113.06-188.94,1113.06-416.4s-466.54-416.4-1113.06-416.4S45.16,200.07,45.16,427.53L45.16,427.53z"/>
	<path id="path840" inkscape:connector-curvature="0" class="st0" d="M783.32,246.55c-4.98,9.96-4.98,19.59-4.98,29.55v124.52
		c0,0,66.74-86.67,82.02-107.25c11.62-15.27,25.9-36.86,25.9-46.82h217.83c-14.94,9.96-31.55,27.89-45.16,44.5
		c-11.95,14.61-79.69,97.29-79.69,97.29s100.61,153.08,113.56,172.67c7.31,10.63,15.27,20.59,24.57,29.55h-250.7
		c0-9.96-9.63-30.22-20.26-46.16c-10.63-15.94-68.07-103.27-68.07-103.27v119.87c0,9.96,0,19.59,4.98,29.55H574.46
		c4.98-9.96,4.98-19.59,4.98-29.55V276.11c0-9.96,0-19.59-4.98-29.55H783.32z M1556.69,246.55h-403.12
		c4.98,9.96,4.98,19.59,4.98,29.55v284.91c0,9.96,0,19.59-4.98,29.55h403.12v-95.3c-9.96,4.98-19.59,4.98-29.55,4.98h-169.68v-45.16
		h163.04v-72.72h-163.04v-45.49h169.68c9.96,0,19.59,0,29.55,4.65L1556.69,246.55z M2115.21,561.01
		c3.32,10.96,8.97,20.92,16.27,29.55h-218.49c1-9.96-2.66-19.59-6.64-29.55c0,0-3.32-7.97-7.97-19.59l-1.99-4.98h-125.85l-1.99,5.31
		c0,0-3.65,9.63-6.97,19.59s-6.97,19.59-5.64,29.55h-172.34c6.97-8.63,12.29-18.6,15.61-29.55l103.27-284.91
		c3.65-9.96,7.31-19.59,5.98-29.55h291.21c-2.66,9.96,2.66,19.59,6.31,29.55C2014.59,298.02,2107.9,541.75,2115.21,561.01
		 M1868.82,463.72l-30.55-79.69c-2.66-7.31-4.98-14.94-6.64-22.58c-1.33,7.64-3.32,15.27-5.98,22.58
		c-1,3.32-13.95,38.19-28.89,79.69H1868.82z M470.53,276.11c0-9.96,0-19.59,4.98-29.55H248.38c4.98,9.96,4.98,19.59,4.98,29.55
		v284.91c0,9.96,0,19.59-4.98,29.55h227.13c-4.98-9.96-4.98-19.59-4.98-29.55V276.11z M2045.48,273.78
		c-0.66,24.9,18.93,45.82,44.16,46.49c24.9,0.66,45.82-18.93,46.49-44.16c0-0.66,0-1.66,0-2.32c0.33-24.57-18.93-44.83-43.5-45.16
		c-0.66,0-1,0-1.66,0c-24.24-1-44.5,17.93-45.16,42.17C2045.14,271.79,2045.14,272.79,2045.48,273.78 M2126.83,273.78
		c0.66,19.92-15.27,36.86-35.2,37.19c-19.92,0.66-36.86-15.27-37.19-35.2c0-0.66,0-1.33,0-2.32c-0.66-19.26,14.28-35.53,33.54-36.19
		c1,0,1.66,0,2.66,0c19.59-0.33,35.86,15.27,36.19,34.87C2126.83,272.79,2126.83,273.45,2126.83,273.78 M2112.88,301.01h-8.97
		l-10.63-19.26h-11.62v19.26h-7.97v-54.46h20.26c9.63,0.33,16.94,7.97,16.94,17.6c0,6.64-3.65,12.62-9.63,15.94L2112.88,301.01z
		 M2092.63,273.78c5.31,0.33,9.96-3.65,9.96-8.97c0-5.31-3.65-9.96-8.97-9.96c-0.33,0-0.66,0-1,0h-10.96v19.26h10.96"/>
</g>
</svg>
